<svg width="19" height="22" viewBox="0 0 19 22" fill="none" xmlns="http://www.w3.org/2000/svg">
<path d="M13.9752 5.14933C11.9991 5.14933 11.164 6.09407 9.78778 6.09407C8.37677 6.09407 7.30051 5.1562 5.58809 5.1562C3.91194 5.1562 2.12454 6.18147 0.989463 7.92807C-0.60435 10.3911 -0.333813 15.0298 2.24755 18.9817C3.17091 20.3963 4.404 21.9828 6.02134 22H6.05075C7.45636 22 7.87393 21.0779 9.80836 21.0671H9.83777C11.7433 21.0671 12.1256 21.9946 13.5253 21.9946H13.5547C15.172 21.9774 16.4713 20.2196 17.3947 18.8103C18.0592 17.7968 18.3062 17.2881 18.8159 16.1415C15.0819 14.7215 14.482 9.41786 18.1749 7.3845C17.0477 5.97033 15.4637 5.15129 13.9703 5.15129L13.9752 5.14933Z" fill="white"/>
<path d="M13.54 0C12.3638 0.080038 10.9915 0.830333 10.1877 1.80994C9.45847 2.69772 8.85859 4.01467 9.09383 5.29184H9.18793C10.4406 5.29184 11.7227 4.53614 12.4716 3.56783C13.193 2.64616 13.74 1.34002 13.54 0Z" fill="white"/>
</svg>
