<svg width="16" height="16" viewBox="0 0 16 16" fill="none" xmlns="http://www.w3.org/2000/svg">
<path d="M3.57143 15.9643V5.28571H0.25V15.9643H3.57143ZM1.89286 3.85714C2.96429 3.85714 3.82143 2.96429 3.82143 1.89286C3.82143 0.857143 2.96429 0 1.89286 0C0.857143 0 0 0.857143 0 1.89286C0 2.96429 0.857143 3.85714 1.89286 3.85714ZM15.9643 15.9643H16V10.1071C16 7.25 15.3571 5.03571 12 5.03571C10.3929 5.03571 9.32143 5.92857 8.85714 6.75H8.82143V5.28571H5.64286V15.9643H8.96429V10.6786C8.96429 9.28571 9.21429 7.96429 10.9286 7.96429C12.6429 7.96429 12.6786 9.53571 12.6786 10.7857V15.9643H15.9643Z" fill="#242331"/>
</svg>
