<svg width="26" height="16" viewBox="0 0 26 16" fill="none" xmlns="http://www.w3.org/2000/svg">
<path d="M19.3431 4.65204L21.4998 0.69549C21.5576 0.589283 21.5734 0.463163 21.5437 0.344668C21.514 0.226174 21.4413 0.124931 21.3413 0.0630441C21.292 0.0323588 21.2374 0.0123518 21.1806 0.00418136C21.1239 -0.00398906 21.0662 -0.000160509 21.0109 0.0154459C20.9556 0.0310522 20.9038 0.0581261 20.8584 0.0950987C20.8131 0.132071 20.7751 0.178208 20.7467 0.230836L18.5631 4.23848C16.8959 3.43179 15.0196 2.98273 13.0015 2.98273C10.9835 2.98273 9.10711 3.43233 7.43996 4.23848L5.25637 0.230836C5.19819 0.124718 5.10258 0.0474234 4.99059 0.0159563C4.8786 -0.0155108 4.75938 0.00142706 4.65918 0.0630441C4.55898 0.124661 4.48599 0.22591 4.45628 0.344516C4.42657 0.463123 4.44256 0.589372 4.50074 0.69549L6.65235 4.65204C2.93516 6.78386 0.415899 10.7705 0 15.4375H26C25.5841 10.7705 23.0649 6.78386 19.3431 4.65204ZM7.03067 11.5708C6.81513 11.5708 6.60444 11.5031 6.42523 11.3763C6.24602 11.2495 6.10634 11.0692 6.02385 10.8583C5.94137 10.6474 5.91979 10.4154 5.96184 10.1915C6.00389 9.96763 6.10768 9.76199 6.26009 9.60059C6.41249 9.43918 6.60667 9.32926 6.81807 9.28473C7.02946 9.2402 7.24857 9.26306 7.4477 9.35041C7.64683 9.43776 7.81703 9.58568 7.93678 9.77547C8.05652 9.96527 8.12043 10.1884 8.12043 10.4167C8.1203 10.7227 8.00544 11.0162 7.8011 11.2326C7.59676 11.449 7.31965 11.5706 7.03067 11.5708ZM18.9643 11.5708C18.7489 11.5698 18.5387 11.5013 18.3601 11.3739C18.1815 11.2465 18.0425 11.0659 17.9607 10.855C17.8789 10.644 17.858 10.4121 17.9006 10.1886C17.9431 9.965 18.0473 9.75981 18.1999 9.59889C18.3525 9.43797 18.5466 9.32853 18.7579 9.28439C18.9692 9.24025 19.1881 9.26339 19.3869 9.35088C19.5858 9.43837 19.7557 9.58629 19.8753 9.77598C19.9948 9.96567 20.0586 10.1886 20.0586 10.4167C20.0585 10.5684 20.0302 10.7187 19.9753 10.8589C19.9203 10.999 19.8398 11.1263 19.7384 11.2335C19.6369 11.3407 19.5165 11.4257 19.384 11.4835C19.2516 11.5414 19.1096 11.5711 18.9663 11.5708H18.9643Z" fill="#242331"/>
</svg>
