<svg width="22" height="22" viewBox="0 0 22 22" fill="none" xmlns="http://www.w3.org/2000/svg">
<g clip-path="url(#clip0_36_21)">
<path d="M13.7959 4.58341C14.6912 4.7581 15.514 5.19598 16.1591 5.84102C16.8041 6.48606 17.242 7.30891 17.4167 8.20425L13.7959 4.58341ZM13.7959 0.916748C15.656 1.1234 17.3906 1.95641 18.7149 3.27901C20.0392 4.6016 20.8744 6.33517 21.0834 8.19508L13.7959 0.916748ZM20.1667 15.5101V18.2601C20.1677 18.5154 20.1154 18.7681 20.0132 19.002C19.9109 19.2359 19.7609 19.4459 19.5728 19.6185C19.3846 19.791 19.1625 19.9224 18.9207 20.0042C18.6789 20.086 18.4226 20.1164 18.1684 20.0934C15.3476 19.7869 12.6381 18.823 10.2575 17.2792C8.0427 15.8719 6.16491 13.9941 4.75752 11.7792C3.20833 9.38785 2.24424 6.66516 1.94335 3.83175C1.92045 3.57826 1.95057 3.32278 2.03181 3.08157C2.11305 2.84036 2.24363 2.61871 2.41522 2.43073C2.58682 2.24275 2.79567 2.09256 3.0285 1.98973C3.26132 1.88689 3.513 1.83365 3.76752 1.83341H6.51752C6.96238 1.82904 7.39366 1.98657 7.73097 2.27665C8.06827 2.56674 8.28859 2.96957 8.35085 3.41008C8.46692 4.29014 8.68218 5.15425 8.99252 5.98592C9.11585 6.31401 9.14254 6.67059 9.06943 7.01339C8.99632 7.35619 8.82648 7.67085 8.58002 7.92008L7.41585 9.08425C8.72078 11.3792 10.6209 13.2793 12.9159 14.5842L14.08 13.4201C14.3293 13.1736 14.6439 13.0038 14.9867 12.9307C15.3295 12.8576 15.6861 12.8843 16.0142 13.0076C16.8459 13.3179 17.71 13.5332 18.59 13.6492C19.0353 13.7121 19.442 13.9364 19.7327 14.2795C20.0234 14.6225 20.1778 15.0605 20.1667 15.5101Z" stroke="#5236FF" stroke-width="2" stroke-linecap="round" stroke-linejoin="round"/>
</g>
<defs>
<clipPath id="clip0_36_21">
<rect width="22" height="22" fill="white"/>
</clipPath>
</defs>
</svg>
