<svg width="19" height="22" viewBox="0 0 19 22" fill="none" xmlns="http://www.w3.org/2000/svg">
<path d="M13.9753 5.14923C11.9992 5.14923 11.164 6.09398 9.78782 6.09398C8.37681 6.09398 7.30054 5.15611 5.58811 5.15611C3.91196 5.15611 2.12455 6.18138 0.989467 7.92799C-0.604352 10.391 -0.333814 15.0298 2.24756 18.9816C3.17092 20.3963 4.40402 21.9828 6.02137 22H6.05077C7.45639 22 7.87396 21.0778 9.8084 21.067H9.83781C11.7433 21.067 12.1256 21.9946 13.5254 21.9946H13.5548C15.1721 21.9774 16.4714 20.2195 17.3947 18.8103C18.0593 17.7968 18.3063 17.2881 18.816 16.1415C15.0819 14.7214 14.482 9.41778 18.175 7.38441C17.0477 5.97024 15.4637 5.1512 13.9704 5.1512L13.9753 5.14923Z" fill="white"/>
<path d="M13.5401 0C12.3638 0.0800383 10.9916 0.830336 10.1878 1.80995C9.45851 2.69773 8.85862 4.01468 9.09387 5.29186H9.18797C10.4407 5.29186 11.7228 4.53616 12.4717 3.56784C13.1931 2.64618 13.7401 1.34003 13.5401 0Z" fill="white"/>
</svg>
