<svg width="1920" height="454" viewBox="0 0 1920 454" fill="none" xmlns="http://www.w3.org/2000/svg">
<mask id="mask0_48_464" style="mask-type:alpha" maskUnits="userSpaceOnUse" x="0" y="428" width="1920" height="15">
<rect width="1920" height="13.5" transform="matrix(1 0 0 -1 0 442.25)" fill="#C4C4C4"/>
</mask>
<g mask="url(#mask0_48_464)">
<path d="M601.55 444.222C601.551 444.222 601.549 444.22 601.543 444.215C601.547 444.219 601.55 444.222 601.55 444.222ZM600.91 444.206C601.062 444.156 601.185 444.109 601.282 444.066C601.185 444.023 601.062 443.976 600.91 443.926C600.327 443.735 599.431 443.538 598.212 443.338C595.782 442.94 592.151 442.545 587.372 442.156C577.819 441.379 563.721 440.629 545.556 439.914C509.229 438.485 456.659 437.197 391.694 436.116C261.766 433.953 82.2684 432.616 -116 432.616C-314.268 432.616 -493.765 433.953 -623.694 436.116C-688.659 437.197 -741.229 438.485 -777.556 439.914C-795.721 440.629 -809.819 441.379 -819.372 442.156C-824.151 442.545 -827.782 442.94 -830.212 443.338C-831.431 443.538 -832.327 443.735 -832.91 443.926C-833.062 443.976 -833.185 444.023 -833.282 444.066C-833.185 444.109 -833.062 444.156 -832.91 444.206C-832.327 444.398 -831.431 444.595 -830.212 444.795C-827.782 445.193 -824.151 445.588 -819.372 445.977C-809.819 446.754 -795.721 447.504 -777.556 448.219C-741.229 449.648 -688.659 450.936 -623.694 452.017C-493.765 454.179 -314.268 455.517 -116 455.517C82.2684 455.517 261.766 454.179 391.694 452.017C456.659 450.936 509.229 449.648 545.556 448.219C563.721 447.504 577.819 446.754 587.372 445.977C592.151 445.588 595.782 445.193 598.212 444.795C599.431 444.595 600.327 444.398 600.91 444.206ZM-833.55 444.222C-833.55 444.222 -833.547 444.22 -833.543 444.215C-833.549 444.219 -833.55 444.222 -833.55 444.222ZM-833.55 443.911C-833.55 443.911 -833.549 443.913 -833.543 443.918C-833.547 443.913 -833.55 443.911 -833.55 443.911ZM601.543 443.918C601.55 443.913 601.551 443.91 601.55 443.911C601.549 443.912 601.547 443.914 601.543 443.918Z" stroke="#E3E3E3"/>
<path d="M2736.54 442.846C2736.54 442.846 2736.54 442.844 2736.53 442.84C2736.53 442.844 2736.54 442.846 2736.54 442.846ZM2735.77 442.954C2736.03 442.869 2736.22 442.789 2736.35 442.719C2736.22 442.65 2736.03 442.57 2735.77 442.484C2735.09 442.262 2734.05 442.033 2732.64 441.802C2729.83 441.342 2725.64 440.886 2720.12 440.437C2709.08 439.54 2692.81 438.673 2671.83 437.848C2629.89 436.198 2569.19 434.711 2494.18 433.463C2344.17 430.966 2136.92 429.421 1908 429.421C1679.08 429.421 1471.83 430.966 1321.82 433.463C1246.81 434.711 1186.11 436.198 1144.17 437.848C1123.19 438.673 1106.92 439.54 1095.88 440.437C1090.36 440.886 1086.17 441.342 1083.36 441.802C1081.95 442.033 1080.91 442.262 1080.23 442.484C1079.97 442.57 1079.78 442.65 1079.65 442.719C1079.78 442.789 1079.97 442.869 1080.23 442.954C1080.91 443.177 1081.95 443.406 1083.36 443.637C1086.17 444.097 1090.36 444.553 1095.88 445.002C1106.92 445.899 1123.19 446.765 1144.17 447.591C1186.11 449.241 1246.81 450.728 1321.82 451.976C1471.83 454.473 1679.08 456.018 1908 456.018C2136.92 456.018 2344.17 454.473 2494.18 451.976C2569.19 450.728 2629.89 449.241 2671.83 447.591C2692.81 446.765 2709.08 445.899 2720.12 445.002C2725.64 444.553 2729.83 444.097 2732.64 443.637C2734.05 443.406 2735.09 443.177 2735.77 442.954ZM1079.46 442.846C1079.46 442.846 1079.47 442.844 1079.47 442.84C1079.46 442.844 1079.46 442.846 1079.46 442.846ZM1079.46 442.593C1079.46 442.593 1079.46 442.595 1079.47 442.599C1079.47 442.595 1079.46 442.593 1079.46 442.593ZM2736.53 442.599C2736.54 442.595 2736.54 442.593 2736.54 442.593C2736.54 442.593 2736.53 442.595 2736.53 442.599Z" stroke="#E3E3E3"/>
<path d="M2486.09 442.74C2486.11 442.733 2486.13 442.726 2486.15 442.719C2486.13 442.712 2486.11 442.706 2486.09 442.698C2485.63 442.547 2484.91 442.388 2483.93 442.227C2481.97 441.907 2479.05 441.589 2475.2 441.276C2467.49 440.649 2456.13 440.044 2441.48 439.468C2412.19 438.315 2369.79 437.277 2317.41 436.405C2212.63 434.661 2067.88 433.582 1908 433.582C1748.12 433.582 1603.37 434.661 1498.59 436.405C1446.21 437.277 1403.81 438.315 1374.52 439.468C1359.87 440.044 1348.51 440.649 1340.8 441.276C1336.95 441.589 1334.03 441.907 1332.07 442.227C1331.09 442.388 1330.37 442.547 1329.91 442.698C1329.89 442.706 1329.87 442.712 1329.85 442.719C1329.87 442.726 1329.89 442.733 1329.91 442.74C1330.37 442.892 1331.09 443.05 1332.07 443.211C1334.03 443.532 1336.95 443.85 1340.8 444.163C1348.51 444.79 1359.87 445.395 1374.52 445.971C1403.81 447.124 1446.21 448.162 1498.59 449.034C1603.37 450.778 1748.12 451.856 1908 451.856C2067.88 451.856 2212.63 450.778 2317.41 449.034C2369.79 448.162 2412.19 447.124 2441.48 445.971C2456.13 445.395 2467.49 444.79 2475.2 444.163C2479.05 443.85 2481.97 443.532 2483.93 443.211C2484.91 443.05 2485.63 442.892 2486.09 442.74ZM1329.43 442.915C1329.43 442.916 1329.43 442.913 1329.44 442.908C1329.43 442.913 1329.43 442.915 1329.43 442.915ZM1329.43 442.523C1329.43 442.523 1329.43 442.526 1329.44 442.531C1329.43 442.526 1329.43 442.523 1329.43 442.523ZM2486.56 442.531C2486.57 442.526 2486.57 442.524 2486.57 442.523C2486.57 442.523 2486.57 442.525 2486.56 442.531Z" stroke="#E3E3E3"/>
</g>
</svg>
