<svg width="1920" height="386" viewBox="0 0 1920 386" fill="none" xmlns="http://www.w3.org/2000/svg">
<mask id="mask0_3_4912" style="mask-type:alpha" maskUnits="userSpaceOnUse" x="0" y="0" width="1920" height="390">
<rect width="1920" height="390" fill="#C4C4C4"/>
</mask>
<g mask="url(#mask0_3_4912)">
<path d="M601.5 -52.4721C601.5 42.5619 521.373 128.745 391.486 191.2C261.635 253.637 82.212 292.269 -116 292.269C-314.212 292.269 -493.635 253.637 -623.486 191.2C-753.373 128.745 -833.5 42.5619 -833.5 -52.4721C-833.5 -147.506 -753.373 -233.689 -623.486 -296.144C-493.635 -358.581 -314.212 -397.213 -116 -397.213C82.212 -397.213 261.635 -358.581 391.486 -296.144C521.373 -233.689 601.5 -147.506 601.5 -52.4721Z" stroke="#E3E3E3"/>
<path d="M2736.5 -13.5611C2736.5 96.2114 2643.95 195.738 2493.97 267.851C2344.04 339.947 2136.86 384.553 1908 384.553C1679.14 384.553 1471.96 339.947 1322.03 267.851C1172.05 195.738 1079.5 96.2114 1079.5 -13.5611C1079.5 -123.334 1172.05 -222.86 1322.03 -294.973C1471.96 -367.069 1679.14 -411.675 1908 -411.675C2136.86 -411.675 2344.04 -367.069 2493.97 -294.973C2643.95 -222.86 2736.5 -123.334 2736.5 -13.5611Z" stroke="#E3E3E3"/>
<path d="M2486.5 -13.5625C2486.5 63.0151 2421.93 132.489 2317.2 182.849C2212.5 233.191 2067.83 264.342 1908 264.342C1748.17 264.342 1603.5 233.191 1498.8 182.849C1394.07 132.489 1329.5 63.0151 1329.5 -13.5625C1329.5 -90.1401 1394.07 -159.614 1498.8 -209.974C1603.5 -260.316 1748.17 -291.467 1908 -291.467C2067.83 -291.467 2212.5 -260.316 2317.2 -209.974C2421.93 -159.614 2486.5 -90.1401 2486.5 -13.5625Z" stroke="#E3E3E3"/>
</g>
</svg>
