<svg width="1920" height="457" viewBox="0 0 1920 457" fill="none" xmlns="http://www.w3.org/2000/svg">
<mask id="mask0_36_187" style="mask-type:alpha" maskUnits="userSpaceOnUse" x="0" y="0" width="1920" height="236">
<rect width="1920" height="236" fill="#C4C4C4"/>
</mask>
<g mask="url(#mask0_36_187)">
<path d="M601.5 -31.7523C601.5 -3.15657 581.579 24.1925 545.293 49.155C509.022 74.1068 456.504 96.5972 391.563 115.493C261.687 153.283 82.2367 176.663 -116 176.663C-314.237 176.663 -493.687 153.283 -623.563 115.493C-688.504 96.5972 -741.022 74.1068 -777.293 49.155C-813.579 24.1925 -833.5 -3.15657 -833.5 -31.7523C-833.5 -60.3479 -813.579 -87.697 -777.293 -112.66C-741.022 -137.611 -688.504 -160.102 -623.563 -178.998C-493.687 -216.787 -314.237 -240.167 -116 -240.167C82.2367 -240.167 261.687 -216.787 391.563 -178.998C456.504 -160.102 509.022 -137.611 545.293 -112.66C581.579 -87.697 601.5 -60.3479 601.5 -31.7523Z" stroke="#E3E3E3"/>
<path d="M2736.5 -8.20627C2736.5 24.8488 2713.47 56.4461 2671.57 85.2726C2629.68 114.088 2569.04 140.059 2494.05 161.877C2344.09 205.511 2136.89 232.506 1908 232.506C1679.11 232.506 1471.91 205.511 1321.95 161.877C1246.96 140.059 1186.32 114.088 1144.43 85.2726C1102.53 56.4461 1079.5 24.8488 1079.5 -8.20627C1079.5 -41.2613 1102.53 -72.8586 1144.43 -101.685C1186.32 -130.501 1246.96 -156.471 1321.95 -178.289C1471.91 -221.924 1679.11 -248.919 1908 -248.919C2136.89 -248.919 2344.09 -221.924 2494.05 -178.289C2569.04 -156.471 2629.68 -130.501 2671.57 -101.685C2713.47 -72.8586 2736.5 -41.2613 2736.5 -8.20627Z" stroke="#E3E3E3"/>
<path d="M2486.5 -8.20714C2486.5 14.8043 2470.47 36.8335 2441.22 56.9573C2411.98 77.0703 2369.64 95.2032 2317.28 110.439C2212.55 140.91 2067.85 159.763 1908 159.763C1748.15 159.763 1603.45 140.91 1498.72 110.439C1446.36 95.2032 1404.02 77.0703 1374.78 56.9573C1345.53 36.8335 1329.5 14.8043 1329.5 -8.20714C1329.5 -31.2186 1345.53 -53.2477 1374.78 -73.3716C1404.02 -93.4846 1446.36 -111.617 1498.72 -126.854C1603.45 -157.324 1748.15 -176.178 1908 -176.178C2067.85 -176.178 2212.55 -157.324 2317.28 -126.854C2369.64 -111.617 2411.98 -93.4846 2441.22 -73.3716C2470.47 -53.2477 2486.5 -31.2186 2486.5 -8.20714Z" stroke="#E3E3E3"/>
</g>
</svg>
