<svg width="17" height="17" viewBox="0 0 17 17" fill="none" xmlns="http://www.w3.org/2000/svg">
<path d="M8.51893 4.12695C6.09577 4.12695 4.16481 6.09577 4.16481 8.48107C4.16481 10.9042 6.09577 12.8352 8.51893 12.8352C10.9042 12.8352 12.8731 10.9042 12.8731 8.48107C12.8731 6.09577 10.9042 4.12695 8.51893 4.12695ZM8.51893 11.3207C6.96659 11.3207 5.67929 10.0713 5.67929 8.48107C5.67929 6.92873 6.92873 5.67929 8.51893 5.67929C10.0713 5.67929 11.3207 6.92873 11.3207 8.48107C11.3207 10.0713 10.0713 11.3207 8.51893 11.3207ZM14.0468 3.9755C14.0468 3.40757 13.5924 2.95323 13.0245 2.95323C12.4566 2.95323 12.0022 3.40757 12.0022 3.9755C12.0022 4.54343 12.4566 4.99777 13.0245 4.99777C13.5924 4.99777 14.0468 4.54343 14.0468 3.9755ZM16.9243 4.99777C16.8486 3.63474 16.5457 2.42316 15.5612 1.43875C14.5768 0.454343 13.3653 0.151448 12.0022 0.0757238C10.6013 0 6.39866 0 4.99777 0.0757238C3.63474 0.151448 2.46102 0.454343 1.43875 1.43875C0.454343 2.42316 0.151448 3.63474 0.0757238 4.99777C0 6.39866 0 10.6013 0.0757238 12.0022C0.151448 13.3653 0.454343 14.539 1.43875 15.5612C2.46102 16.5457 3.63474 16.8486 4.99777 16.9243C6.39866 17 10.6013 17 12.0022 16.9243C13.3653 16.8486 14.5768 16.5457 15.5612 15.5612C16.5457 14.539 16.8486 13.3653 16.9243 12.0022C17 10.6013 17 6.39866 16.9243 4.99777ZM15.1069 13.4788C14.8419 14.2361 14.2361 14.804 13.5167 15.1069C12.3808 15.5612 9.73051 15.4477 8.51893 15.4477C7.26949 15.4477 4.61915 15.5612 3.52116 15.1069C2.76392 14.804 2.19599 14.2361 1.8931 13.4788C1.43875 12.3808 1.55234 9.73051 1.55234 8.48107C1.55234 7.26949 1.43875 4.61915 1.8931 3.4833C2.19599 2.76392 2.76392 2.19599 3.52116 1.8931C4.61915 1.43875 7.26949 1.55234 8.51893 1.55234C9.73051 1.55234 12.3808 1.43875 13.5167 1.8931C14.2361 2.15813 14.804 2.76392 15.1069 3.4833C15.5612 4.61915 15.4477 7.26949 15.4477 8.48107C15.4477 9.73051 15.5612 12.3808 15.1069 13.4788Z" fill="#242331"/>
</svg>
